<svg width="129" height="40" viewBox="0 0 129 40" fill="none" xmlns="http://www.w3.org/2000/svg">
<g clip-path="url(#clip0_468_3491)">
<g clip-path="url(#clip1_468_3491)">
<path d="M114.732 7.05213H109.54V0.352079H126.569V7.05213H121.433V39.4358H114.732V7.05213ZM94.9119 39.4356V0.352079H101.612V32.7356H110.099V39.4356H94.9119ZM73.2241 0.352079H79.9802V31.5632C79.9802 32.4564 80.7617 33.2382 81.6552 33.2382C81.9194 33.2393 82.1813 33.188 82.4257 33.0874C82.67 32.9867 82.892 32.8387 83.0789 32.6518C83.2657 32.465 83.4137 32.243 83.5144 31.9986C83.615 31.7542 83.6662 31.4923 83.6651 31.2281V0.408042H90.4209V31.2281C90.4209 36.0856 86.5127 39.994 81.6552 39.994C77.021 39.994 73.2241 36.1973 73.2241 31.5632V0.352079ZM52.1907 0.408042H59.0023V18.6097L63.3574 0.408042H70.3365L65.5348 19.8938L70.3923 39.4914H63.4132L59.0023 20.7873V39.4356H52.1907V0.408042ZM0.153687 9.49588V0.137878H19.8025L20.7052 3.85736C21.2024 5.90078 21.7036 7.57685 21.8204 7.57895C21.9373 7.58106 22.3983 6.12375 22.8444 4.33945C23.2927 2.55304 23.7451 0.879074 24.0509 0.137878H43.7381V12.0674L33.2912 18.3869L28.9366 18.406L25.9096 15.5191C23.8491 13.5543 22.5088 12.454 21.7143 12.0674C20.6989 11.5767 20.2826 11.5025 18.528 11.5044C16.8521 11.5065 16.357 11.5895 15.6072 11.9824C15.1102 12.2437 14.2625 12.864 13.7231 13.361C13.1835 13.8581 12.3465 14.8246 11.8644 15.5128C11.3821 16.1989 10.5092 17.1355 8.86277 18.4272H0.153687V9.49588Z" fill="white"/>
<path d="M16.0045 15.5C16.2826 15.2451 16.7968 14.8862 17.1473 14.7035C17.4978 14.5207 18.2858 14.372 18.8997 14.372C19.5137 14.37 20.2784 14.472 20.5991 14.5951C20.9198 14.7183 21.5422 15.173 21.9841 15.6042C22.4237 16.0354 22.7806 16.5324 22.7785 16.7066C22.7763 16.8808 22.4876 17.1931 22.1371 17.3969C21.7887 17.601 21.5039 17.8409 21.5061 17.928C21.5104 18.0151 21.8078 18.2318 22.1709 18.406C22.5321 18.5802 22.9379 18.8839 23.0695 19.0793C23.2544 19.3554 23.2119 19.636 22.8827 20.3305C22.649 20.8233 22.1476 21.501 21.7674 21.8345C21.3871 22.1679 20.718 22.5376 20.2805 22.6523C19.8428 22.7691 19.197 22.8627 18.8467 22.8604C18.4962 22.8583 17.8269 22.6799 17.3596 22.4632C16.8924 22.2465 16.2954 21.8664 16.0321 21.6178C15.7686 21.3692 15.363 20.785 15.1293 20.3177C14.8956 19.8505 14.7065 19.0623 14.7086 18.5653C14.7107 18.0683 14.8893 17.2801 15.1058 16.8127C15.3226 16.3456 15.7261 15.7549 16.0044 15.5H16.0045Z" fill="white"/>
<path d="M0.153564 29.5827V19.791H4.64898C4.64898 19.791 9.28983 19.7337 9.55332 19.791C9.81664 19.8461 11.2504 21.0655 12.7395 22.4993C14.7534 24.4387 15.6667 25.1715 16.2976 25.3564C16.7649 25.4945 17.6252 25.6687 18.2094 25.7473C18.9175 25.8394 19.7141 25.772 20.5991 25.5455C21.3298 25.3564 22.237 25.0122 22.6171 24.7785C22.9975 24.5449 24.4483 23.2533 28.3758 19.4681L33.2912 19.4788L37.7521 22.0574C40.2056 23.4744 42.572 24.8594 43.8062 25.6283V39.4356H24.2634L24.119 38.8514C24.0404 38.5307 23.539 36.5233 23.0038 34.3906C22.4706 32.2578 21.9373 30.5076 21.8205 30.4992C21.7037 30.4927 21.1239 32.4747 19.452 39.3295H0.153564V29.5827Z" fill="white"/>
</g>
</g>
<defs>
<clipPath id="clip0_468_3491">
<rect width="128.065" height="40" fill="white"/>
</clipPath>
<clipPath id="clip1_468_3491">
<rect width="128.065" height="39.9982" fill="white" transform="translate(0 0.000686646)"/>
</clipPath>
</defs>
</svg>
