<svg width="117" height="28" viewBox="0 0 117 28" fill="none" xmlns="http://www.w3.org/2000/svg">
<g clip-path="url(#clip0_473_5279)">
<path d="M18.413 12.685V7.22901L5.00098 19.3585V24.8145L18.413 12.685ZM18.413 5.46146V0.00463867L0 16.6476V22.1036L18.413 5.46146ZM10.027 22.0394V27.4963L18.413 19.9094V14.4526L10.027 22.0394ZM22.6757 2.76055L25.4182 0.0246393H36.7461V12.035H33.141V9.10574H27.9858L25.5224 12.035H21.534L24.6057 8.21654L22.6757 6.29565V2.75555V2.76055ZM33.141 6.17648V2.96389H26.2808V6.17648H33.141ZM38.9353 12.04V0.0246393H42.5396V4.5131H49.4998V0.0246393H53.1049V12.035H49.4998V6.98067H42.5396V12.035H38.9353V12.04ZM55.2783 12.04V0.0246393H66.6569V3.2614H58.8834V12.035H55.2783V12.04ZM68.322 9.30907V2.76055L71.0687 0.0246393H80.3132L83.0549 2.75555V9.30407L80.3132 12.035H71.0687L68.327 9.30407L68.322 9.30907ZM72.0312 3.16723V8.90656H79.3456V3.16223H72.0312V3.16723ZM99.8679 0.0246393V12.035H96.2628V3.21223H91.4368L88.2601 12.035H84.4758L88.5142 0.0246393H99.8679ZM116.67 12.04H113.115V4.33393L105.826 12.04H102.041V0.0246393H105.596V7.72986L112.886 0.0246393H116.67V12.04ZM21.534 19.8352H22.9148V16.6226H25.2091V19.8352H26.5899V15.4259H21.534V19.8352ZM32.7276 16.6226H34.4827V19.8352H35.8685V16.6226H37.6136V15.4259H32.7276V16.6226ZM38.2669 15.4259V19.8352H39.6528V18.946H42.2454L43.2779 17.9185V16.4484L42.2454 15.4209H38.2669V15.4259ZM41.897 17.8393H39.6528V16.5335H41.897V17.8393ZM45.053 15.4259L44.0104 16.4534V18.8119L45.053 19.8402H48.3581L49.4006 18.8119V16.4534L48.3581 15.4259H45.053ZM47.9697 18.6385H45.4413V16.6276H47.9697V18.6385ZM54.0874 17.0051H51.694V15.4259H50.3123V19.8352H51.694V18.251H54.0874V19.8352H55.4733V15.4259H54.0874V17.0051ZM70.9196 17.0051H68.5312V15.4259H67.1453V19.8352H68.5312V18.251H70.9196V19.8352H72.3054V15.4259H70.9196V17.0051ZM83.0949 16.6718H85.9917V15.4259H82.7057L81.664 16.4484V18.8068L82.7057 19.8352H86.0867V18.5885H83.0949V16.6718ZM86.4658 19.8352H87.9217L89.0284 16.6326H90.6985V19.8352H92.0843V15.4259H87.9059L86.4658 19.8352ZM104.859 15.4259H103.308L102.8 16.6426H101.986V15.4259H100.6V16.6426H99.7879L99.2845 15.4259H97.7287L98.5412 17.1043L97.5887 19.8352H99.1545L99.7029 17.8343H100.6V19.8352H101.986V17.8343H102.889L103.427 19.8352H104.998L104.051 17.1043L104.859 15.4259ZM106.902 16.9951V16.5335H110.263V15.4259H105.521V19.8352H109.72L110.717 18.8469V17.9777L109.72 16.9951H106.902ZM109.286 18.7227H106.902V18.0677H109.286V18.7227ZM30.7534 15.4259H28.6592L27.1833 19.8352H28.6392L28.8833 19.0352H31.2817L31.5259 19.8352H32.9818L31.4959 15.4259H30.7484H30.7534ZM29.2325 17.8393L29.6059 16.6276H30.5484L30.9276 17.8393H29.2275H29.2325ZM61.4609 16.6226H63.216V19.8352H64.6027V16.6226H66.3469V15.4259H61.4609V16.6226ZM59.4867 15.4259H57.3925L55.9166 19.8352H57.3725L57.6167 19.0352H60.0151L60.2592 19.8352H61.7151L60.2292 15.4259H59.4817H59.4867ZM57.9658 17.8393L58.34 16.6276H59.2826L59.6617 17.8393H57.9608H57.9658ZM76.4689 15.4259H74.3747L72.8988 19.8352H74.3547L74.5988 19.0352H76.9972L77.2414 19.8352H78.6973L77.2114 15.4259H76.4639H76.4689ZM74.948 17.8393L75.3222 16.6276H76.2639L76.6431 17.8393H74.943H74.948ZM115.209 19.8352H116.665L115.179 15.4259H112.337L110.862 19.8352H112.317L112.562 19.0352H114.96L115.204 19.8352H115.209ZM114.611 17.8393H112.911L113.285 16.6276H114.227L114.606 17.8393H114.611ZM95.6494 16.7068H94.3136L93.9694 15.4259H92.5977L93.291 17.8193H95.3903L95.1511 18.6777H92.8227V19.8352H96.1286L97.3495 15.4259H95.9836L95.6494 16.7068Z" fill="#D9D9D9"/>
</g>
<defs>
<clipPath id="clip0_473_5279">
<rect width="116.67" height="27.5008" fill="white"/>
</clipPath>
</defs>
</svg>
