<svg width="33" height="32" viewBox="0 0 33 32" fill="none" xmlns="http://www.w3.org/2000/svg">
<path d="M16.5927 16.7119C17.1088 16.1853 17.1004 15.3401 16.5738 14.824C16.0473 14.3079 15.202 14.3164 14.6859 14.8429L15.6393 15.7774L16.5927 16.7119ZM6.62059 23.5358L5.6766 24.4798L6.62059 23.5358ZM8.04185 23.5287L7.08845 22.5942L8.04185 23.5287ZM13.441 10.7944L12.4912 9.85622L3.46851 18.9896L4.41824 19.9278L5.36796 20.866L14.3907 11.7326L13.441 10.7944ZM4.42254 21.3377L3.47855 22.2817L5.6766 24.4798L6.62059 23.5358L7.56457 22.5918L5.36652 20.3937L4.42254 21.3377ZM8.04185 23.5287L8.99525 24.4631L16.5927 16.7119L15.6393 15.7774L14.6859 14.8429L7.08845 22.5942L8.04185 23.5287ZM6.62059 23.5358L5.6766 24.4798C6.59494 25.3981 8.08615 25.3906 8.99525 24.4631L8.04185 23.5287L7.08845 22.5942C7.21888 22.4611 7.43282 22.46 7.56457 22.5918L6.62059 23.5358ZM4.41824 19.9278L3.46851 18.9896C2.56612 19.9031 2.5706 21.3738 3.47855 22.2817L4.42254 21.3377L5.36652 20.3937C5.49679 20.524 5.49743 20.735 5.36796 20.866L4.41824 19.9278Z" fill="#252525"/>
<path d="M16.2256 15.5819L16.8607 17.2429L20.465 26.6585C20.6672 27.1868 21.2671 27.4423 21.7882 27.2221L24.6778 26.0007C25.1766 25.7899 25.4169 25.2204 25.2201 24.716L21.9413 16.3147L21.5017 15.2888" stroke="#252525" stroke-width="2.67"/>
<path d="M1.33496 10.5503L30.585 10.5503" stroke="#252525" stroke-width="2.67" stroke-linecap="round"/>
<path d="M1.33496 15.7363L8.36038 15.7363" stroke="#252525" stroke-width="2.67" stroke-linecap="round"/>
<path d="M15.688 15.7363L30.585 15.7363" stroke="#252525" stroke-width="2.67" stroke-linecap="round"/>
<path d="M18.4727 10.4036V15.6308" stroke="#252525" stroke-width="2.67"/>
</svg>
