<svg width="24" height="24" viewBox="0 0 24 24" fill="none" xmlns="http://www.w3.org/2000/svg">
<g clip-path="url(#clip0_468_3415)">
<path d="M3 12C3 7.029 7.029 3 12 3C16.971 3 21 7.029 21 12C21 16.971 16.971 21 12 21C7.029 21 3 16.971 3 12Z" fill="#87A84A" fill-opacity="0.4"/>
</g>
<path d="M12.2819 7.2C13.1499 7.2 13.9013 7.34467 14.5359 7.634C15.1799 7.92333 15.6746 8.334 16.0199 8.866C16.3653 9.398 16.5379 10.028 16.5379 10.756C16.5379 11.4747 16.3653 12.1047 16.0199 12.646C15.6746 13.178 15.1799 13.5887 14.5359 13.878C13.9013 14.158 13.1499 14.298 12.2819 14.298H10.3079V17H8.03993V7.2H12.2819ZM12.1559 12.45C12.8373 12.45 13.3553 12.3053 13.7099 12.016C14.0646 11.7173 14.2419 11.2973 14.2419 10.756C14.2419 10.2053 14.0646 9.78533 13.7099 9.496C13.3553 9.19733 12.8373 9.048 12.1559 9.048H10.3079V12.45H12.1559Z" fill="#F9F9F9"/>
<defs>
<clipPath id="clip0_468_3415">
<rect width="18" height="18" fill="white" transform="translate(3 3)"/>
</clipPath>
</defs>
</svg>
