<svg width="32" height="32" viewBox="0 0 32 32" fill="none" xmlns="http://www.w3.org/2000/svg">
<path d="M21.9546 9.99996C20.8573 5.64929 18.6026 2.66663 16 2.66663C12.3186 2.66663 9.33331 8.63596 9.33331 16C9.33331 23.364 12.3186 29.3333 16 29.3333C16.456 29.3333 16.9026 29.2413 17.3333 29.0666" stroke="#88A94B" stroke-width="2.66667" stroke-linecap="round" stroke-linejoin="round"/>
<path d="M20.2587 18.276L25.344 20.756L22.864 25.8413" stroke="#88A94B" stroke-width="2.66667" stroke-linecap="round" stroke-linejoin="round"/>
<path d="M25.3334 20.76C22.928 21.94 19.6347 22.6667 16 22.6667C8.63602 22.6667 2.66669 19.6814 2.66669 16C2.66669 12.3187 8.63602 9.33337 16 9.33337C22.4507 9.33337 27.8307 11.624 29.0667 14.6667" stroke="#88A94B" stroke-width="2.66667" stroke-linecap="round" stroke-linejoin="round"/>
</svg>
